# xmcd
#
# Track frame offsets: 
#        182
#        18470
#        37507
#        53695
#        71375
#        94602
#        117132
#        138355
#        157795
#        179740
#        198420
#        220087
#        239120
#
# Disc length: 3497 seconds
#
# Revision: 5
# Processed by: cddbd v1.5.2PL0 Copyright (c) Steve Scherf et al.
# Submitted via: ExactAudioCopy v1.0b3
#
DISCID=a80da70d
DTITLE=Diana Ross - The Force Behind The Power
DYEAR=1991
DGENRE=W-song
TTITLE0=CHANGE OF HEART
TTITLE1=WHEN YOU TELL ME THAT YOU LOVE ME
TTITLE2=BATTLEFIELD
TTITLE3=BLAME IT ON THE SUN
TTITLE4=YOU'RE GONNA LOVE IT
TTITLE5=HEAVY WEATHER
TTITLE6=THE FORCE BEHIND THE POWER
TTITLE7=HEART ( DON'T CHANGE MY MIND)
TTITLE8=WAITING IN THE WINGS
TTITLE9=YOU AND I
TTITLE10=ONE SHINING MOMENT
TTITLE11=IF WE HOLD ON TOGETHER
TTITLE12=NO MATTER WHAT YOU DO
EXTD=YEAR: 1991
EXTT0=
EXTT1=
EXTT2=
EXTT3=
EXTT4=
EXTT5=
EXTT6=
EXTT7=
EXTT8=
EXTT9=
EXTT10=
EXTT11=
EXTT12=
PLAYORDER=
